<?xml version="1.0" encoding="utf-8"?>
<!-- Generator: Adobe Illustrator 24.0.0, SVG Export Plug-In . SVG Version: 6.00 Build 0)  -->
<svg version="1.1" id="Layer_1" xmlns="http://www.w3.org/2000/svg" xmlns:xlink="http://www.w3.org/1999/xlink" x="0px" y="0px"
	 viewBox="0 0 100 100" style="enable-background:new 0 0 100 100;" xml:space="preserve">
<style type="text/css">
	.frfrfrfrrrrr{fill:#CFD9E0;}
	.dfefefefe{fill:#5AA5E0;}
</style>
<g>
	<path class="frfrfrfrrrrr" d="M58.2,20.8H35.5c-8,0-14.5,6.5-14.5,14.5v22c0,8,6.5,14.5,14.5,14.5h8.8v-8.3h-5.4c-5.2,0-9.5-4.2-9.5-9.5
		V38.6c0-5.2,4.2-9.5,9.5-9.5h16.8c5.2,0,9.5,4.2,9.5,9.5v4.9h7.5v-8.2C72.7,27.3,66.2,20.8,58.2,20.8z"/>
	<path class="dfefefefe" d="M64.5,79.2L64.5,79.2c-1.4,0-2.5-1.1-2.5-2.5v-24c0-1.4,1.1-2.5,2.5-2.5l0,0c1.4,0,2.5,1.1,2.5,2.5v24
		C67,78.1,65.9,79.2,64.5,79.2z"/>
	<path class="dfefefefe" d="M79,64.7L79,64.7c0,1.4-1.1,2.5-2.5,2.5h-24c-1.4,0-2.5-1.1-2.5-2.5l0,0c0-1.4,1.1-2.5,2.5-2.5h24
		C77.9,62.2,79,63.3,79,64.7z"/>
</g>
</svg>
