<?xml version="1.0" encoding="utf-8"?>
<!-- Generator: Adobe Illustrator 24.0.0, SVG Export Plug-In . SVG Version: 6.00 Build 0)  -->
<svg version="1.1" id="Layer_1" xmlns="http://www.w3.org/2000/svg" xmlns:xlink="http://www.w3.org/1999/xlink" x="0px" y="0px"
	 viewBox="0 0 100 100" style="enable-background:new 0 0 100 100;" xml:space="preserve">
<style type="text/css">
	.rere{fill:#CFD9E0;}
	.reree{fill:#5AA5E0;}
	.rereee{fill:#818181;}
</style>
<g>
	<path class="rere" d="M46,20.9c-14,0-25.4,11.3-25.4,25.4c0,14,11.4,25.4,25.4,25.4l18.2-8.2l7.2-17.2C71.4,32.2,60.1,20.9,46,20.9z
		 M46,62.4c-8.9,0-16.2-7.2-16.2-16.2S37.1,30.1,46,30.1c8.9,0,16.2,7.2,16.2,16.2S55,62.4,46,62.4z"/>
	<path class="reree" d="M75.8,69.6L67,60.7c2.8-4.1,4.5-9.1,4.5-14.4h-4.6c0,11.5-9.3,20.8-20.8,20.8v4.6c5.4,0,10.3-1.7,14.4-4.5
		l8.9,8.9l4.7-1.9L75.8,69.6z"/>
	
		<rect x="69.6" y="72.1" transform="matrix(0.7071 -0.7071 0.7071 0.7071 -30.8971 74.2833)" class="rereee" width="9.2" height="4.6"/>
</g>
</svg>
