<?xml version="1.0" encoding="utf-8"?>
<!-- Generator: Adobe Illustrator 24.0.0, SVG Export Plug-In . SVG Version: 6.00 Build 0)  -->
<svg version="1.1" id="Layer_1" xmlns="http://www.w3.org/2000/svg" xmlns:xlink="http://www.w3.org/1999/xlink" x="0px" y="0px"
	 viewBox="0 0 38.6 38.6" style="enable-background:new 0 0 38.6 38.6;" xml:space="preserve">
<style type="text/css">
	.toolbar-closed-status-style0{fill:none;stroke:#434343;stroke-miterlimit:10;}
	.toolbar-closed-status-style1{fill:url(#toolbar-closed1);stroke:#434343;stroke-miterlimit:10;}
	.toolbar-closed-status-style2{fill:url(#toolbar-closed2);stroke:#434343;stroke-miterlimit:10;}
	.toolbar-closed-status-style3{fill:#B6B7B7;stroke:#434343;stroke-miterlimit:10;}
	.toolbar-closed-status-style4{fill:#B6B7B7;}
	.toolbar-closed-status-style5{fill:url(#toolbar-closed3);}
	.toolbar-closed-status-style6{fill:url(#toolbar-closed4);}
	.toolbar-closed-status-style7{fill:#D9DCE1;}
</style>
<g>
	<path class="toolbar-closed-status-style0" d="M6.2,29.4l-4.5,4.5c-0.3,0.3-0.4,0.7-0.4,1.1s0.1,0.8,0.4,1.1c0.6,0.6,1.6,0.6,2.1,0l4.5-4.5"/>
	<linearGradient id="toolbar-closed1" gradientUnits="userSpaceOnUse" x1="17.2984" y1="23.9885" x2="23.7884" y2="23.9885">
		<stop  offset="0" style="stop-color:#FAC828"/>
		<stop  offset="0.3812" style="stop-color:#FBBF2E"/>
		<stop  offset="0.9944" style="stop-color:#FDA63D"/>
	</linearGradient>
	<path class="toolbar-closed-status-style1" d="M19.4,27.2l3.9-3.9c0.3-0.3,0.4-0.7,0.4-1.1c0-0.4-0.1-0.8-0.4-1c-0.6-0.6-1.6-0.6-2.2,0l-3.9,3.9"/>
	<linearGradient id="toolbar-closed2" gradientUnits="userSpaceOnUse" x1="10.2984" y1="16.9885" x2="16.7884" y2="16.9885">
		<stop  offset="0" style="stop-color:#FAC828"/>
		<stop  offset="0.3812" style="stop-color:#FBBF2E"/>
		<stop  offset="0.9944" style="stop-color:#FDA63D"/>
	</linearGradient>
	<path class="toolbar-closed-status-style2" d="M12.4,20.2l3.9-3.9c0.3-0.3,0.4-0.7,0.4-1.1s-0.1-0.8-0.4-1.1c-0.6-0.6-1.6-0.6-2.2,0l-3.9,3.9"/>
	<path class="toolbar-closed-status-style0" d="M8.4,20.6l-2.8,2.7C4,25,4,27.7,5.6,29.4L9.2,33c1.5,1.5,4,1.5,5.5,0l3-3"/>
	<path class="toolbar-closed-status-style3" d="M36.9,3.3c0,0.4-0.1,0.8-0.4,1.1l-4.2,4.2l-0.3,0.3l-1.2-1.2l-1-1l0.3-0.3l0.3-0.3l3.9-3.9
		c0.6-0.6,1.6-0.6,2.2,0C36.7,2.6,36.9,2.9,36.9,3.3z"/>
	<path class="toolbar-closed-status-style4" d="M32.5,14.9l-2.4,2.4l-0.4,0.4l-1.1-1.1l-8.2-8.2l0.4-0.4l2.6-2.7c1.5-1.5,4-1.5,5.5,0L30.6,7v0l1.6,1.6
		l0.2,0.2C34.2,10.5,34.2,13.2,32.5,14.9z"/>
	<path class="toolbar-closed-status-style4" d="M31.2,20.5C30.8,20.8,30.4,21,30,21c-0.4,0-0.8-0.2-1.1-0.5L17.7,9.2C17,8.6,17,7.6,17.7,7
		c0.3-0.3,0.7-0.5,1.1-0.5c0.4,0,0.8,0.2,1.1,0.5l11.3,11.3C31.8,18.9,31.8,19.9,31.2,20.5z"/>
	
		<linearGradient id="toolbar-closed3" gradientUnits="userSpaceOnUse" x1="-386.4962" y1="-979.5735" x2="-377.6227" y2="-979.5735" gradientTransform="matrix(0.7071 -0.7071 -0.7071 -0.7071 -391.4202 -935.3215)">
		<stop  offset="0" style="stop-color:#FF0048"/>
		<stop  offset="0.1739" style="stop-color:#FF0942"/>
		<stop  offset="0.4637" style="stop-color:#FF2330"/>
		<stop  offset="0.8314" style="stop-color:#FF4C14"/>
		<stop  offset="0.9944" style="stop-color:#FF6106"/>
	</linearGradient>
	<path class="toolbar-closed-status-style5" d="M33.1,24.4l-5.2,5.2c-0.3,0.3-0.3,0.8,0,1.1v0c0.3,0.3,0.8,0.3,1.1,0l5.2-5.2c0.3-0.3,0.3-0.8,0-1.1l0,0
		C33.9,24.1,33.4,24.1,33.1,24.4z"/>
	
		<linearGradient id="toolbar-closed4" gradientUnits="userSpaceOnUse" x1="235.3737" y1="-481.8151" x2="244.2473" y2="-481.8151" gradientTransform="matrix(0.7071 0.7071 0.7071 -0.7071 202.2091 -482.768)">
		<stop  offset="0" style="stop-color:#FF0048"/>
		<stop  offset="0.1739" style="stop-color:#FF0942"/>
		<stop  offset="0.4637" style="stop-color:#FF2330"/>
		<stop  offset="0.8314" style="stop-color:#FF4C14"/>
		<stop  offset="0.9944" style="stop-color:#FF6106"/>
	</linearGradient>
	<path class="toolbar-closed-status-style6" d="M34.2,29.5L29,24.4c-0.3-0.3-0.8-0.3-1.1,0v0c-0.3,0.3-0.3,0.8,0,1.1l5.2,5.2c0.3,0.3,0.8,0.3,1.1,0l0,0
		C34.5,30.3,34.5,29.8,34.2,29.5z"/>
	<path class="toolbar-closed-status-style0" d="M19.1,30.7L7.2,18.8c-0.6-0.6-0.6-1.6,0-2.2l0,0c0.6-0.6,1.6-0.6,2.2,0l11.9,11.9c0.6,0.6,0.6,1.6,0,2.2l0,0
		C20.7,31.3,19.7,31.3,19.1,30.7z"/>
	<path class="toolbar-closed-status-style7" d="M30,9.1c0,2.1-0.7,4.1-1.9,5.6c-0.1,0.1-0.2,0.3-0.3,0.4c-0.5,0.6-1.1,1.2-1.7,1.6l-8.5-8.1
		c-0.6-0.5-0.6-1.4,0-2c0.3-0.3,0.7-0.4,1-0.4c0.4,0,0.7,0.1,1,0.4l0.8,0.8l2.5-2.3c1.4-1.3,3.7-1.3,5.1,0l1.1,1l0.3-0.3
		c0.1,0.2,0.2,0.5,0.2,0.7v0c0.1,0.2,0.1,0.4,0.1,0.6C29.9,7.9,30,8.5,30,9.1z"/>
	<path class="toolbar-closed-status-style0" d="M31,20.5c-0.3,0.3-0.7,0.5-1.1,0.5c-0.4,0-0.8-0.2-1.1-0.5L17.5,9.2c-0.6-0.6-0.6-1.6,0-2.2
		c0.3-0.3,0.7-0.5,1.1-0.5c0.4,0,0.8,0.2,1.1,0.5L31,18.3C31.6,18.9,31.6,19.9,31,20.5z"/>
	<path class="toolbar-closed-status-style0" d="M30,17.2l2.3-2.3c1.7-1.7,1.7-4.4,0-6.1l-0.2-0.2L30.5,7v0l-1.7-1.7c-1.5-1.5-4-1.5-5.5,0l-2.6,2.6"/>
</g>
</svg>
