<?xml version="1.0" encoding="utf-8"?>
<!-- Generator: Adobe Illustrator 24.0.0, SVG Export Plug-In . SVG Version: 6.00 Build 0)  -->
<svg version="1.1" id="Layer_1" xmlns="http://www.w3.org/2000/svg" xmlns:xlink="http://www.w3.org/1999/xlink" x="0px" y="0px"
	 viewBox="0 0 38.6 38.6" style="enable-background:new 0 0 38.6 38.6;" xml:space="preserve">
<style type="text/css">
	.toolbar-closed-status-disable-style0{fill:none;stroke:#C9C9C9;stroke-miterlimit:10;}
	.toolbar-closed-status-disable-style1{fill:#F0F0F0;stroke:#C9C9C9;stroke-miterlimit:10;}
	.toolbar-closed-status-disable-style2{fill:#B6B7B7;}
	.toolbar-closed-status-disable-style3{fill:#C9C9C9;}
</style>
<g>
	<path class="toolbar-closed-status-disable-style0" d="M6.2,29.4l-4.5,4.5c-0.3,0.3-0.4,0.7-0.4,1.1s0.1,0.8,0.4,1.1c0.6,0.6,1.6,0.6,2.1,0l4.5-4.5"/>
	<path class="toolbar-closed-status-disable-style0" d="M19.4,27.2l3.9-3.9c0.3-0.3,0.4-0.7,0.4-1.1s-0.1-0.8-0.4-1c-0.6-0.6-1.6-0.6-2.2,0l-3.9,3.9"/>
	<path class="toolbar-closed-status-disable-style0" d="M12.4,20.2l3.9-3.9c0.3-0.3,0.4-0.7,0.4-1.1s-0.1-0.8-0.4-1.1c-0.6-0.6-1.6-0.6-2.2,0L10.2,18"/>
	<path class="toolbar-closed-status-disable-style0" d="M8.4,20.6l-2.8,2.7C4,25,4,27.7,5.6,29.4L9.2,33c1.5,1.5,4,1.5,5.5,0l3-3"/>
	<path class="toolbar-closed-status-disable-style1" d="M36.9,3.3c0,0.4-0.1,0.8-0.4,1.1l-4.2,4.2L32,8.9l-1.2-1.2l-1-1l0.3-0.3l0.3-0.3l3.9-3.9
		c0.6-0.6,1.6-0.6,2.2,0C36.7,2.6,36.9,2.9,36.9,3.3z"/>
	<path class="toolbar-closed-status-disable-style2" d="M32.5,14.9l-2.4,2.4l-0.4,0.4l-1.1-1.1l-8.2-8.2L20.8,8l2.6-2.7c1.5-1.5,4-1.5,5.5,0L30.6,7l0,0l1.6,1.6
		l0.2,0.2C34.2,10.5,34.2,13.2,32.5,14.9z"/>
	<path class="toolbar-closed-status-disable-style2" d="M31.2,20.5C30.8,20.8,30.4,21,30,21s-0.8-0.2-1.1-0.5L17.7,9.2C17,8.6,17,7.6,17.7,7c0.3-0.3,0.7-0.5,1.1-0.5
		s0.8,0.2,1.1,0.5l11.3,11.3C31.8,18.9,31.8,19.9,31.2,20.5z"/>
	<path class="toolbar-closed-status-disable-style3" d="M33.1,24.4l-5.2,5.2c-0.3,0.3-0.3,0.8,0,1.1l0,0c0.3,0.3,0.8,0.3,1.1,0l5.2-5.2c0.3-0.3,0.3-0.8,0-1.1l0,0
		C33.9,24.1,33.4,24.1,33.1,24.4z"/>
	<path class="toolbar-closed-status-disable-style3" d="M34.2,29.5L29,24.4c-0.3-0.3-0.8-0.3-1.1,0l0,0c-0.3,0.3-0.3,0.8,0,1.1l5.2,5.2c0.3,0.3,0.8,0.3,1.1,0l0,0
		C34.5,30.3,34.5,29.8,34.2,29.5z"/>
	<path class="toolbar-closed-status-disable-style0" d="M19.1,30.7L7.2,18.8c-0.6-0.6-0.6-1.6,0-2.2l0,0c0.6-0.6,1.6-0.6,2.2,0l11.9,11.9c0.6,0.6,0.6,1.6,0,2.2l0,0
		C20.7,31.3,19.7,31.3,19.1,30.7z"/>
	<path class="toolbar-closed-status-disable-style1" d="M30,17.2l2.3-2.3c1.7-1.7,1.7-4.4,0-6.1l-0.2-0.2L30.5,7l0,0l-1.7-1.7c-1.5-1.5-4-1.5-5.5,0l-2.6,2.6"/>
	<path class="toolbar-closed-status-disable-style1" d="M30.8,20.3c-0.3,0.3-0.7,0.5-1.1,0.5s-0.8-0.2-1.1-0.5L17.3,8.9c-0.6-0.6-0.6-1.6,0-2.2
		c0.3-0.3,0.7-0.5,1.1-0.5s0.8,0.2,1.1,0.5L30.8,18C31.4,18.6,31.4,19.6,30.8,20.3z"/>
</g>
</svg>
