<?xml version="1.0" encoding="utf-8"?>
<!-- Generator: Adobe Illustrator 24.0.0, SVG Export Plug-In . SVG Version: 6.00 Build 0)  -->
<svg version="1.1" id="Layer_1" xmlns="http://www.w3.org/2000/svg" xmlns:xlink="http://www.w3.org/1999/xlink" x="0px" y="0px"
	 viewBox="0 0 100 100" style="enable-background:new 0 0 100 100;" xml:space="preserve">
<style type="text/css">
	.rddd{fill:none;stroke:#CFD9E0;stroke-width:3.4775;stroke-miterlimit:10;}
	.rdddd{fill:#e6e6e6;}
	.rddddd{fill:#e6e6e6;}
</style>
<g>
	<path class="rddd" d="M70.1,56.9c0.9-2.5,1-4.3,1-7.1c0-13.4-10.8-24.2-24.2-24.2c-13.4,0-24.2,10.8-24.2,24.2S33.6,74,47,74
		c0.8,0,1.5,0,2.3-0.1"/>
	<path class="rddd" d="M70.1,56.9c0.9-2.5,1-4.3,1-7.1c0-13.4-10.8-24.2-24.2-24.2c-13.4,0-24.2,10.8-24.2,24.2S33.6,74,47,74
		c0.8,0,1.5,0,2.3-0.1"/>
	<circle class="rdddd" cx="48.9" cy="74" r="1.8"/>
	<path class="rddddd" d="M69.6,58.9L63.6,51c-0.6-0.8-0.5-2,0.3-2.7h0c0.8-0.6,2-0.5,2.7,0.3l6.1,7.8c0.6,0.8,0.5,2-0.3,2.7l0,0
		C71.5,59.8,70.3,59.7,69.6,58.9z"/>
	<path class="rddddd" d="M69.6,56.6l6-7.9c0.6-0.8,1.8-1,2.7-0.4l0,0c0.8,0.6,1,1.8,0.4,2.7l-6,7.9c-0.6,0.8-1.8,1-2.7,0.4h0
		C69.1,58.6,68.9,57.4,69.6,56.6z"/>
</g>
</svg>
