<?xml version="1.0" encoding="utf-8"?>
<!-- Generator: Adobe Illustrator 22.0.1, SVG Export Plug-In . SVG Version: 6.00 Build 0)  -->
<svg version="1.1" id="Layer_1" xmlns="http://www.w3.org/2000/svg" xmlns:xlink="http://www.w3.org/1999/xlink" x="0px" y="0px"
	 viewBox="0 0 64 64" enable-background="new 0 0 64 64" xml:space="preserve">
<g>
	<path fill="#3976B7" d="M35.0573235,39.1083984c0.4658318-0.4883881,0.1126099-1.2863388-0.5693741-1.2863388h-4.8539753
		c-0.6995583,0-1.0450554,0.8334923-0.5437965,1.3119164l1.1766949,1.1230736h0.0120335l-2.8902454,8.707283l0.9149284,10.1638184
		h7.3252335l0.9929504-10.1638184l-2.660099-8.707283L35.0573235,39.1083984z"/>
	<path fill="#3F4857" d="M8.8084316,45.4727554c0,0-1.0555768,8.27005-1.5230865,11.9382668
		c-0.116416,0.9126854,0.6096153,1.7171288,1.5478249,1.7171288h16.7103577l-1.0033569-10.7092361l2.0067711-5.2246628v-7.3551788
		l-15.9865093,7.2583542C9.6714191,43.5001259,9.0163612,44.3921051,8.8084316,45.4727554z"/>
	<path fill="#3F4857" d="M56.7146759,57.4110222c-0.4676208-3.6682167-1.52314-11.9382668-1.52314-11.9382668
		c-0.2079811-1.0806503-0.8629875-1.9726295-1.7467957-2.3753281l-15.9865112-7.2583542v6.9932861l1.996418,5.698658
		l-1.0709686,10.5971336h16.783123C56.10495,59.1281509,56.8309822,58.3237076,56.7146759,57.4110222z"/>
	<path fill="#3F4857" d="M43.567543,18.3629875c-0.1334534-0.2048283-0.2731171-0.3662224-0.4158707-0.4996758
		c0.0155144-0.1769085,0.0279198-0.3476028,0.0372391-0.5151901c0.043438-0.6238289,0.0558624-1.216629,0.043438-1.7752743
		c-0.0030899-0.117938-0.0061951-0.235877-0.0124092-0.350709c-0.0993156-2.1725254-0.6300201-3.8329477-1.5859375-4.9564524
		c-0.3289833-0.3724375-0.6983109-0.6859045-1.1017761-0.9310827c-0.4065742-0.7200394-1.0552368-1.6449084-2.0328789-2.4673719
		c-1.7721481-1.5207753-4.0222664-2.1911464-6.5144711-1.9459682c-2.4921875-0.2451782-4.7423038,0.4251928-6.5082569,1.939755
		c-0.9838371,0.8286767-1.6324997,1.7535458-2.039072,2.4735851c-0.4034653,0.2451782-0.7759018,0.5617523-1.1142044,0.94349
		c-0.7634754,0.8969469-1.2538509,2.1414967-1.4648933,3.7274361c-0.0496674,0.3631172-0.0838032,0.744874-0.1024246,1.1452322
		c-0.0217266,0.3941641-0.0248337,0.8069305-0.0155144,1.2414427c0.0062141,0.4717541,0.0341358,0.9621105,0.0775909,1.4711075
		c-0.1427727,0.1334534-0.2855263,0.2948475-0.4158916,0.4996758c-0.7014008,1.0800686-0.8565807,2.9111862-0.4251938,4.90061
		c0.4189987,1.9180279,1.4431858,3.9167519,2.8429165,4.5095329c1.2476368,3.7677841,4.2302189,7.5665951,9.1525364,7.6131573
		h0.0248337c4.9223175-0.0465622,7.9048805-3.8453732,9.1494293-7.6131573
		c1.3997307-0.5927811,2.4239197-2.5915051,2.8460045-4.5095329C44.4241409,21.2741737,44.2658539,19.4430561,43.567543,18.3629875z
		 M41.7084846,22.7639027c-0.3879509,1.7721653-1.1607437,2.7187634-1.449379,2.8491287
		c-0.5307236-0.0155334-1.0117798,0.3351746-1.1545525,0.8534908c-0.4220848,1.5331841-2.1880379,6.5299835-7.1196766,6.5827408
		c-4.9285316-0.0527573-6.6944847-5.0495567-7.1196766-6.5827408c-0.1427536-0.5089951-0.6051884-0.8534908-1.1266117-0.8534908
		h-0.0310287c-0.2886333-0.1303654-1.0614281-1.0769634-1.4462719-2.8491287
		c-0.3755436-1.7162857-0.0931244-2.8770332,0.1086178-3.1501522c0.549345-0.1520729,0.9124622-0.6827965,0.8472786-1.2569561
		c-0.0124073-0.1055317-0.0248146-0.2110443-0.037241-0.3165741V18.030899c0-0.0061932,0.4220848-3.8919163,2.4611588-4.7702427
		c0,0,7.4641914,4.2488403,15.2356186,3.5567417c-0.0217285,0.4903755-0.0620766,1.0024586-0.1241531,1.5393963
		c-0.0651627,0.5741596,0.2948494,1.1048832,0.8441925,1.2569561c0.1334534,0.1738014,0.2979355,0.7169342,0.2979355,1.5424843
		C41.8946953,21.6093693,41.841938,22.1525002,41.7084846,22.7639027z"/>
</g>
</svg>
